<svg xmlns="http://www.w3.org/2000/svg" width="38" height="37" viewBox="0 0 38 37">
  <g id="Group_67" data-name="Group 67" transform="translate(0.178)">
    <ellipse id="Ellipse_2" data-name="Ellipse 2" cx="19" cy="18.5" rx="19" ry="18.5" transform="translate(-0.178)" fill="#fff"/>
    <path id="Icon_awesome-instagram" data-name="Icon awesome-instagram" d="M10.021,7.121A5.139,5.139,0,1,0,15.16,12.26,5.131,5.131,0,0,0,10.021,7.121Zm0,8.48a3.341,3.341,0,1,1,3.341-3.341A3.347,3.347,0,0,1,10.021,15.6Zm6.548-8.69a1.2,1.2,0,1,1-1.2-1.2A1.2,1.2,0,0,1,16.569,6.91Zm3.4,1.217a5.932,5.932,0,0,0-1.619-4.2,5.971,5.971,0,0,0-4.2-1.619c-1.655-.094-6.615-.094-8.27,0a5.962,5.962,0,0,0-4.2,1.615,5.951,5.951,0,0,0-1.619,4.2c-.094,1.655-.094,6.615,0,8.27a5.932,5.932,0,0,0,1.619,4.2,5.978,5.978,0,0,0,4.2,1.619c1.655.094,6.615.094,8.27,0a5.932,5.932,0,0,0,4.2-1.619,5.971,5.971,0,0,0,1.619-4.2c.094-1.655.094-6.61,0-8.265ZM17.835,18.168a3.382,3.382,0,0,1-1.905,1.905c-1.319.523-4.45.4-5.908.4s-4.593.116-5.908-.4a3.382,3.382,0,0,1-1.905-1.905c-.523-1.319-.4-4.45-.4-5.908s-.116-4.593.4-5.908A3.382,3.382,0,0,1,4.113,4.446c1.319-.523,4.45-.4,5.908-.4s4.593-.116,5.908.4a3.382,3.382,0,0,1,1.905,1.905c.523,1.319.4,4.45.4,5.908S18.358,16.853,17.835,18.168Z" transform="translate(8.827 5.763)" fill="#0171fe"/>
  </g>
</svg>
