<svg xmlns="http://www.w3.org/2000/svg" width="311.48" height="96" viewBox="0 0 311.48 96"><defs><style>.cls-1{fill:#fff;}</style></defs><title>logo-biale</title><g id="OBJECTS"><circle class="cls-1" cx="129.35" cy="242.64" r="8.73" transform="translate(-228.12 -45.2) rotate(-45)"/><path class="cls-1" d="M129.35,207.73a34.88,34.88,0,0,0-34.91,34.91v61.09l17.45-18.19v-42.9a17.44,17.44,0,0,1,8.73-15.1,17.23,17.23,0,0,1,8.73-2.36,17.46,17.46,0,0,1,0,34.91,17.23,17.23,0,0,1-8.73-2.36v18.71a34.91,34.91,0,1,0,8.73-68.71Z" transform="translate(-94.44 -207.73)"/><path class="cls-1" d="M179.19,262a.79.79,0,0,1-.59-.25.81.81,0,0,1-.25-.59V228a.85.85,0,0,1,.84-.84h9.11a11.76,11.76,0,1,1,0,23.51H180v10.51a.87.87,0,0,1-.22.59A.82.82,0,0,1,179.19,262Zm.83-13h8.28a10.08,10.08,0,0,0,0-20.16H180Z" transform="translate(-94.44 -207.73)"/><path class="cls-1" d="M205.52,262a.69.69,0,0,1-.5-.22.71.71,0,0,1-.23-.51V248.08a10,10,0,0,1,10-10h1.76a.74.74,0,0,1,.53.23.71.71,0,0,1,.22.53.73.73,0,0,1-.22.53.79.79,0,0,1-.53.2h-1.76a8.48,8.48,0,0,0-8.47,8.47v13.19a.77.77,0,0,1-.76.73Z" transform="translate(-94.44 -207.73)"/><path class="cls-1" d="M229.9,262a9.92,9.92,0,0,1-9.92-9.92v-4a9.92,9.92,0,0,1,9.92-9.9H230a9.94,9.94,0,0,1,9.93,9.9v4A9.94,9.94,0,0,1,230,262Zm-8.44-9.92a8.4,8.4,0,0,0,8.44,8.44H230a8.45,8.45,0,0,0,8.45-8.44v-4a8.5,8.5,0,0,0-8.45-8.45h-.08a8.45,8.45,0,0,0-8.44,8.45Z" transform="translate(-94.44 -207.73)"/><path class="cls-1" d="M245.11,262a.68.68,0,0,1-.5-.22.71.71,0,0,1-.23-.51v-13.7a9.18,9.18,0,0,1,2.66-6.73,8.93,8.93,0,0,1,6.65-2.72h.06a9.3,9.3,0,0,1,5.25,1.54,8.9,8.9,0,0,1,3.33,4.08,8.92,8.92,0,0,1,3.3-4.08,9.36,9.36,0,0,1,5.26-1.54H271a8.9,8.9,0,0,1,6.63,2.72,9.17,9.17,0,0,1,2.65,6.73v13.7a.7.7,0,0,1-.22.51.63.63,0,0,1-.5.22.73.73,0,0,1-.54-.22.7.7,0,0,1-.22-.51v-13.7a7.81,7.81,0,0,0-2.24-5.7,7.49,7.49,0,0,0-5.56-2.26h-.08a7.56,7.56,0,0,0-5.6,2.26,7.84,7.84,0,0,0-2.23,5.7v13.7a.71.71,0,0,1-.23.51.62.62,0,0,1-.5.22.73.73,0,0,1-.53-.22.7.7,0,0,1-.22-.51v-13.7a7.85,7.85,0,0,0-2.24-5.7,7.52,7.52,0,0,0-5.59-2.26h-.06a7.54,7.54,0,0,0-5.59,2.26,7.85,7.85,0,0,0-2.24,5.7v13.7a.7.7,0,0,1-.22.51A.73.73,0,0,1,245.11,262Z" transform="translate(-94.44 -207.73)"/><path class="cls-1" d="M304,238.15a.8.8,0,0,1,.54.2.82.82,0,0,1,.19.53v13.17a9.94,9.94,0,0,1-9.92,9.95h-.09a9.94,9.94,0,0,1-9.95-9.95V238.88a.71.71,0,0,1,.22-.53.69.69,0,0,1,.51-.2.79.79,0,0,1,.53.2.71.71,0,0,1,.22.53v13.17a8.5,8.5,0,0,0,8.47,8.47h.09a8.5,8.5,0,0,0,8.47-8.47V238.88a.77.77,0,0,1,.19-.53A.79.79,0,0,1,304,238.15Z" transform="translate(-94.44 -207.73)"/><path class="cls-1" d="M305.89,273.07a.68.68,0,0,1-.67-.42.65.65,0,0,1,.36-1,9.34,9.34,0,0,0,4-3.46,9.22,9.22,0,0,0,1.51-5.09V238.88a.67.67,0,0,1,.75-.76c.49,0,.73.26.73.76v24.24a10.89,10.89,0,0,1-6.43,9.9A.92.92,0,0,1,305.89,273.07Zm6-43.25a1.67,1.67,0,0,0-1.2.5,1.64,1.64,0,0,0-.5,1.21,1.54,1.54,0,0,0,.5,1.17,1.63,1.63,0,0,0,1.2.5,1.54,1.54,0,0,0,1.18-.5,1.57,1.57,0,0,0,.5-1.17,1.68,1.68,0,0,0-.5-1.21A1.58,1.58,0,0,0,311.87,229.82Z" transform="translate(-94.44 -207.73)"/><path class="cls-1" d="M330.72,261.89a1.61,1.61,0,0,1-1-.84,1.7,1.7,0,0,1-.06-1.29q12-32.5,12-32.54a2,2,0,0,1,.36-.53,1.6,1.6,0,0,1,1.18-.48,1.53,1.53,0,0,1,1.14.48,2,2,0,0,1,.37.53s4,10.87,12,32.54a1.7,1.7,0,0,1-.06,1.29,1.5,1.5,0,0,1-.92.84,1.67,1.67,0,0,1-.59.11,1.55,1.55,0,0,1-1.56-1.09l-3.69-10H336.53l-3.69,10a1.55,1.55,0,0,1-1.56,1.09A1.4,1.4,0,0,1,330.72,261.89Zm7-14.32h11l-5.51-14.93Z" transform="translate(-94.44 -207.73)"/><path class="cls-1" d="M361.27,272.85a1.4,1.4,0,0,1-1-.42,1.42,1.42,0,0,1-.42-1V247.32a10.48,10.48,0,0,1,10.46-10.45h.08a10.45,10.45,0,0,1,10.46,10.45v3.89a10.41,10.41,0,0,1-10.46,10.46h-.08a10,10,0,0,1-7.55-3.25v13a1.49,1.49,0,0,1-1.46,1.46Zm1.46-21.64a7.6,7.6,0,0,0,7.55,7.58h.08a7.65,7.65,0,0,0,7.58-7.58v-3.89a7.6,7.6,0,0,0-7.58-7.55h-.08a7.55,7.55,0,0,0-7.55,7.55Z" transform="translate(-94.44 -207.73)"/><path class="cls-1" d="M386.38,272.85a1.42,1.42,0,0,1-1-.42,1.46,1.46,0,0,1-.42-1V247.32a10.5,10.5,0,0,1,10.46-10.45h.08a10.45,10.45,0,0,1,10.46,10.45v3.89a10.41,10.41,0,0,1-10.46,10.46h-.08a10,10,0,0,1-7.55-3.25v13a1.4,1.4,0,0,1-.44,1A1.38,1.38,0,0,1,386.38,272.85Zm1.45-21.64a7.6,7.6,0,0,0,7.55,7.58h.08a7.63,7.63,0,0,0,7.58-7.58v-3.89a7.58,7.58,0,0,0-7.58-7.55h-.08a7.55,7.55,0,0,0-7.55,7.55Z" transform="translate(-94.44 -207.73)"/></g></svg>