<svg xmlns="http://www.w3.org/2000/svg" width="40.734" height="36.417" viewBox="0 0 40.734 36.417">
  <g id="Group_65" data-name="Group 65" transform="translate(0.75 0.75)">
    <path id="Path_445" d="M27.034,5.561l-8.7,7.006a4.535,4.535,0,0,1-5.6,0L3.954,5.561" transform="translate(4.112 5.784)" fill="none" stroke="#fff" stroke-linecap="round" stroke-linejoin="round" stroke-width="1.5" fill-rule="evenodd" opacity="0.4"/>
    <path id="Rectangle_511" d="M9.971,0H29.2a10.112,10.112,0,0,1,7.3,3.244A10.235,10.235,0,0,1,39.213,10.8V24.117a10.234,10.234,0,0,1-2.705,7.556,10.112,10.112,0,0,1-7.3,3.244H9.971C4.015,34.917,0,30.071,0,24.117V10.8C0,4.846,4.015,0,9.971,0Z" fill="none" stroke="#fff" stroke-linecap="round" stroke-linejoin="round" stroke-width="1.5" fill-rule="evenodd"/>
  </g>
</svg>
