<svg id="Group_69" data-name="Group 69" xmlns="http://www.w3.org/2000/svg" width="126.544" height="38.794" viewBox="0 0 126.544 38.794">
  <path id="Path_307" data-name="Path 307" d="M66.068,21.392a3.928,3.928,0,1,0,3.944,3.928A3.873,3.873,0,0,0,66.068,21.392Zm0,6.311a2.387,2.387,0,1,1,2.217-2.381A2.272,2.272,0,0,1,66.068,27.7Zm-8.6-6.311a3.928,3.928,0,1,0,3.944,3.928A3.873,3.873,0,0,0,57.465,21.392Zm0,6.311a2.387,2.387,0,1,1,2.217-2.381A2.272,2.272,0,0,1,57.465,27.7ZM47.232,22.6v1.666h3.988a3.473,3.473,0,0,1-.908,2.1,4.083,4.083,0,0,1-3.08,1.22,4.435,4.435,0,0,1,0-8.869A4.249,4.249,0,0,1,50.238,19.9l1.176-1.176a5.814,5.814,0,0,0-4.181-1.681,6.1,6.1,0,1,0,0,12.2,5.577,5.577,0,0,0,4.255-1.712,5.508,5.508,0,0,0,1.444-3.9,5.391,5.391,0,0,0-.09-1.041H47.232Zm41.85,1.294a3.652,3.652,0,0,0-3.363-2.5,3.734,3.734,0,0,0-3.706,3.928,3.845,3.845,0,0,0,3.9,3.928,3.91,3.91,0,0,0,3.274-1.741l-1.339-.893A2.243,2.243,0,0,1,85.912,27.7a2,2,0,0,1-1.9-1.191l5.253-2.172ZM83.725,25.2a2.155,2.155,0,0,1,2.054-2.292,1.523,1.523,0,0,1,1.458.833Zm-4.27,3.809H81.18V17.465H79.455Zm-2.828-6.741h-.059a2.722,2.722,0,0,0-2.068-.878,3.932,3.932,0,0,0,0,7.858,2.679,2.679,0,0,0,2.068-.892h.059v.565c0,1.5-.8,2.306-2.1,2.306a2.173,2.173,0,0,1-1.979-1.4l-1.5.625a3.744,3.744,0,0,0,3.482,2.321c2.024,0,3.735-1.191,3.735-4.093V21.631H76.628v.639ZM74.648,27.7a2.39,2.39,0,0,1,0-4.762,2.214,2.214,0,0,1,2.1,2.4A2.2,2.2,0,0,1,74.648,27.7Zm22.52-10.238h-4.13V29.012h1.723V24.637h2.406a3.592,3.592,0,1,0,0-7.172Zm.044,5.565H94.761V19.072h2.451a1.979,1.979,0,1,1,0,3.958Zm10.652-1.658a3.235,3.235,0,0,0-3.075,1.768l1.53.638a1.635,1.635,0,0,1,1.575-.847,1.659,1.659,0,0,1,1.812,1.485v.119a3.816,3.816,0,0,0-1.8-.445c-1.649,0-3.328.906-3.328,2.6a2.668,2.668,0,0,0,2.867,2.54,2.43,2.43,0,0,0,2.2-1.13h.059v.891h1.664V24.564C111.371,22.515,109.839,21.372,107.865,21.372Zm-.209,6.328c-.563,0-1.351-.283-1.351-.981,0-.891.981-1.233,1.828-1.233a3.071,3.071,0,0,1,1.574.386A2.089,2.089,0,0,1,107.656,27.7Zm9.775-6.076-1.976,5.006H115.4l-2.051-5.006h-1.857l3.075,7-1.753,3.892h1.8l4.739-10.889Zm-15.523,7.388h1.723V17.465h-1.723Z" transform="translate(-2.209 -0.377)" fill="#fff"/>
  <path id="Path_315" data-name="Path 315" d="M46.955,9.985a2.5,2.5,0,0,1-.688,1.85,2.686,2.686,0,0,1-2.036.82,2.853,2.853,0,0,1-2.879-2.894,2.855,2.855,0,0,1,2.879-2.895,2.861,2.861,0,0,1,1.137.232,2.281,2.281,0,0,1,.866.619l-.487.488a1.87,1.87,0,0,0-1.518-.658,2.142,2.142,0,0,0-2.152,2.213,2.179,2.179,0,0,0,3.7,1.594,1.745,1.745,0,0,0,.465-1.122H44.23V9.567h2.685A2.222,2.222,0,0,1,46.955,9.985Z" transform="translate(-2.232 0.399)" fill="none" stroke="#fff" stroke-miterlimit="10" stroke-width="0.2"/>
  <path id="Path_316" data-name="Path 316" d="M51.761,7.681H49.237V9.438h2.276V10.1H49.237V11.86h2.523v.682H48.525V7h3.236Z" transform="translate(-2.78 0.39)" fill="none" stroke="#fff" stroke-miterlimit="10" stroke-width="0.2"/>
  <path id="Path_317" data-name="Path 317" d="M55.092,12.542H54.38V7.681H52.832V7H56.64v.681H55.092Z" transform="translate(-3.109 0.39)" fill="none" stroke="#fff" stroke-miterlimit="10" stroke-width="0.2"/>
  <path id="Path_318" data-name="Path 318" d="M59.938,12.542V7h.712v5.542Z" transform="translate(-3.651 0.39)" fill="none" stroke="#fff" stroke-miterlimit="10" stroke-width="0.2"/>
  <path id="Path_319" data-name="Path 319" d="M63.941,12.542h-.712V7.681H61.681V7H65.49v.681H63.941Z" transform="translate(-3.784 0.39)" fill="none" stroke="#fff" stroke-miterlimit="10" stroke-width="0.2"/>
  <path id="Path_320" data-name="Path 320" d="M73.206,11.816a2.878,2.878,0,0,1-4.063,0,2.834,2.834,0,0,1-.817-2.055,2.834,2.834,0,0,1,.817-2.055,2.867,2.867,0,0,1,4.06,0,2.833,2.833,0,0,1,.82,2.051A2.838,2.838,0,0,1,73.206,11.816Zm-3.538-.465a2.132,2.132,0,0,0,3.011,0A2.171,2.171,0,0,0,73.3,9.761a2.171,2.171,0,0,0-.616-1.591,2.132,2.132,0,0,0-3.011,0,2.174,2.174,0,0,0-.615,1.591A2.174,2.174,0,0,0,69.668,11.351Z" transform="translate(-4.291 0.4)" fill="none" stroke="#fff" stroke-miterlimit="10" stroke-width="0.2"/>
  <path id="Path_321" data-name="Path 321" d="M75.575,12.542V7h.867l2.693,4.311h.03l-.03-1.068V7h.712v5.542H79.1l-2.818-4.52h-.031l.031,1.068v3.453Z" transform="translate(-4.844 0.39)" fill="none" stroke="#fff" stroke-miterlimit="10" stroke-width="0.2"/>
  <path id="Path_322" data-name="Path 322" d="M10.142,7.9a2.23,2.23,0,0,0-.169.9V29.234a2.229,2.229,0,0,0,.17.9L21.258,19.019Zm.642,22.9a1.738,1.738,0,0,0,1.536-.212L25.4,23.158l-3.485-3.485ZM26.23,22.685l4.1-2.331c1.29-.734,1.29-1.934,0-2.668l-4.1-2.332-3.664,3.665Zm-.835-7.8L12.32,7.451a1.735,1.735,0,0,0-1.536-.212L21.911,18.366Z" transform="translate(0.162 0.379)" fill="#fff" fill-rule="evenodd"/>
  <path id="Path_323" data-name="Path 323" d="M4.542.847H120V-1H4.542ZM123.7,4.542v27.71h1.847V4.542ZM120,35.947H4.542v1.847H120ZM.847,32.252V4.542H-1v27.71Zm3.695,3.695A3.7,3.7,0,0,1,.847,32.252H-1a5.542,5.542,0,0,0,5.542,5.542ZM123.7,32.252A3.7,3.7,0,0,1,120,35.947v1.847a5.542,5.542,0,0,0,5.542-5.542ZM120,.847A3.7,3.7,0,0,1,123.7,4.542h1.847A5.542,5.542,0,0,0,120-1ZM4.542-1A5.542,5.542,0,0,0-1,4.542H.847A3.7,3.7,0,0,1,4.542.847Z" transform="translate(1 1)" fill="#fff"/>
</svg>
