<svg xmlns="http://www.w3.org/2000/svg" width="124.697" height="38.794" viewBox="0 0 124.697 38.794">
  <g id="Group_71" data-name="Group 71" transform="translate(0 0)">
    <path id="Path_283" data-name="Path 283" d="M45.107,24.879h3.229L47.18,21.785q-.239-.641-.47-1.417-.209.686-.455,1.4Zm3.781,1.469H44.562L43.5,29.242H41.6l4.235-10.8h1.8l4.332,10.8h-2Z" transform="translate(-2.251 -0.483)" fill="#fff"/>
    <path id="Path_284" data-name="Path 284" d="M58.491,27.492a3.668,3.668,0,0,0,.563-2.211,3.245,3.245,0,0,0-.466-1.957,1.487,1.487,0,0,0-1.242-.608,2,2,0,0,0-.992.253,3.734,3.734,0,0,0-.865.679v4.31a2.813,2.813,0,0,0,.641.212,3.428,3.428,0,0,0,.723.079A1.914,1.914,0,0,0,58.491,27.492ZM53.648,23.38q0-.895-.06-1.969h1.73a8.593,8.593,0,0,1,.134,1.021,3.26,3.26,0,0,1,2.461-1.171,2.774,2.774,0,0,1,2.6,1.689,5.136,5.136,0,0,1,.421,2.226,5.511,5.511,0,0,1-.481,2.408A3.443,3.443,0,0,1,59.106,29.1a3.836,3.836,0,0,1-2,.514,4.923,4.923,0,0,1-1.618-.276v3.326l-1.842.157Z" transform="translate(-3.166 -0.699)" fill="#fff"/>
    <path id="Path_285" data-name="Path 285" d="M67.588,27.492a3.668,3.668,0,0,0,.563-2.211,3.246,3.246,0,0,0-.466-1.957,1.487,1.487,0,0,0-1.242-.608,2,2,0,0,0-.992.253,3.73,3.73,0,0,0-.865.679v4.31a2.809,2.809,0,0,0,.641.212,3.423,3.423,0,0,0,.723.079A1.915,1.915,0,0,0,67.588,27.492ZM62.745,23.38q0-.895-.06-1.969h1.73a8.591,8.591,0,0,1,.134,1.021,3.26,3.26,0,0,1,2.461-1.171,2.775,2.775,0,0,1,2.6,1.689,5.145,5.145,0,0,1,.421,2.226,5.515,5.515,0,0,1-.481,2.408A3.445,3.445,0,0,1,68.2,29.1a3.837,3.837,0,0,1-2,.514,4.922,4.922,0,0,1-1.618-.276v3.326l-1.842.157Z" transform="translate(-3.861 -0.699)" fill="#fff"/>
    <path id="Path_286" data-name="Path 286" d="M74.1,28.719a4.469,4.469,0,0,1-1.834-1.89,6.208,6.208,0,0,1-.641-2.908,6.061,6.061,0,0,1,.738-3.091,4.752,4.752,0,0,1,2.009-1.909,6.276,6.276,0,0,1,2.853-.638A7.535,7.535,0,0,1,79,18.488a7.7,7.7,0,0,1,1.577.563l-.47,1.417a6.515,6.515,0,0,0-2.8-.7,3.922,3.922,0,0,0-1.972.481,3.269,3.269,0,0,0-1.316,1.413,4.956,4.956,0,0,0-.47,2.252,5.442,5.442,0,0,0,.361,2.051,3.03,3.03,0,0,0,1.141,1.417,3.457,3.457,0,0,0,1.965.522,6.519,6.519,0,0,0,1.074-.089,5.6,5.6,0,0,0,1.007-.261V25.367h-2.5V23.936h4.288v4.549a9.575,9.575,0,0,1-1.942.664,9.127,9.127,0,0,1-2.025.231A5.731,5.731,0,0,1,74.1,28.719Z" transform="translate(-4.542 -0.472)" fill="#fff"/>
    <path id="Path_287" data-name="Path 287" d="M87.193,27.966a2.947,2.947,0,0,0,.939-.686V25.789a11.853,11.853,0,0,0-1.23-.082,2.5,2.5,0,0,0-1.577.369,1.235,1.235,0,0,0-.436,1,1.134,1.134,0,0,0,.317.884,1.234,1.234,0,0,0,.861.287A2.587,2.587,0,0,0,87.193,27.966Zm1.1,1.491a7.012,7.012,0,0,1-.127-1.066,3.557,3.557,0,0,1-1.107.861,3.292,3.292,0,0,1-1.54.354,2.9,2.9,0,0,1-1.264-.272,2.107,2.107,0,0,1-.906-.82,2.517,2.517,0,0,1-.336-1.339,2.3,2.3,0,0,1,.843-1.868,4.438,4.438,0,0,1,2.811-.7,10.24,10.24,0,0,1,1.462.1v-.157a2.031,2.031,0,0,0-.455-1.5,1.812,1.812,0,0,0-1.3-.436,5.107,5.107,0,0,0-1.26.171,6.639,6.639,0,0,0-1.178.41l-.291-1.342a7.056,7.056,0,0,1,1.3-.41,7.527,7.527,0,0,1,1.7-.186,4.454,4.454,0,0,1,1.775.317,2.328,2.328,0,0,1,1.141,1.089,4.448,4.448,0,0,1,.41,2.077v3.2q0,.5.06,1.514Z" transform="translate(-5.412 -0.699)" fill="#fff"/>
    <path id="Path_288" data-name="Path 288" d="M92.071,27.246V17.738l1.834-.149v9.328a1.159,1.159,0,0,0,.175.727.68.68,0,0,0,.556.213,2.06,2.06,0,0,0,.484-.082l.216,1.32a3.129,3.129,0,0,1-.637.168,4.317,4.317,0,0,1-.712.063Q92.07,29.326,92.071,27.246Z" transform="translate(-6.103 -0.419)" fill="#fff"/>
    <path id="Path_289" data-name="Path 289" d="M97.036,27.246V17.738l1.834-.149v9.328a1.159,1.159,0,0,0,.175.727.681.681,0,0,0,.556.213,2.073,2.073,0,0,0,.485-.082l.216,1.32a3.143,3.143,0,0,1-.638.168,4.317,4.317,0,0,1-.712.063Q97.036,29.326,97.036,27.246Z" transform="translate(-6.482 -0.419)" fill="#fff"/>
    <path id="Path_290" data-name="Path 290" d="M106.355,24.5a2.308,2.308,0,0,0-.486-1.443,1.479,1.479,0,0,0-1.155-.481,1.551,1.551,0,0,0-1.168.485,2.566,2.566,0,0,0-.609,1.439Zm1.8,1.171h-5.264q.126,2.528,2.409,2.528a5.128,5.128,0,0,0,1.16-.138,6.894,6.894,0,0,0,1.135-.369l.4,1.26a6.855,6.855,0,0,1-3.035.656,4.422,4.422,0,0,1-2.162-.485,3.1,3.1,0,0,1-1.325-1.394,4.976,4.976,0,0,1-.442-2.192,5.174,5.174,0,0,1,.47-2.3,3.407,3.407,0,0,1,1.308-1.469,3.667,3.667,0,0,1,1.936-.507,3.244,3.244,0,0,1,1.9.533,3.183,3.183,0,0,1,1.133,1.42,5.066,5.066,0,0,1,.369,1.961Z" transform="translate(-6.787 -0.699)" fill="#fff"/>
    <path id="Path_291" data-name="Path 291" d="M110.243,23.432c0-.442-.022-1.116-.062-2.021h1.725c.03.224.056.491.086.8s.044.563.054.757a6.758,6.758,0,0,1,.631-.891,2.589,2.589,0,0,1,.724-.589,1.92,1.92,0,0,1,.943-.227,2.607,2.607,0,0,1,.729.09l-.231,1.6a2.024,2.024,0,0,0-.6-.082,1.956,1.956,0,0,0-1.132.332,4.592,4.592,0,0,0-1.037,1.092v5.168h-1.833Z" transform="translate(-7.486 -0.699)" fill="#fff"/>
    <path id="Path_292" data-name="Path 292" d="M116.542,32.762a4.441,4.441,0,0,1-.662-.16l.335-1.342a4.747,4.747,0,0,0,.47.1,3.136,3.136,0,0,0,.537.048q1.223,0,1.833-1.573l.121-.3-2.968-8.113h1.975l1.493,4.534a14.768,14.768,0,0,1,.468,1.782c.14-.582.3-1.163.492-1.745l1.515-4.571h1.855l-2.958,8.15a8.422,8.422,0,0,1-.9,1.864A3.167,3.167,0,0,1,119,32.49a3.425,3.425,0,0,1-1.594.343A4.964,4.964,0,0,1,116.542,32.762Z" transform="translate(-7.921 -0.711)" fill="#fff"/>
    <path id="Path_293" data-name="Path 293" d="M41.593,7.3h3.283l-.092.793H42.555V9.629h2.1v.743h-2.1v1.7H44.9l-.081.8H41.593Z" transform="translate(-2.251 0.366)" fill="#fff"/>
    <path id="Path_294" data-name="Path 294" d="M47.442,10.03,45.711,7.3H46.8l1.174,2.005L49.213,7.3h1.062L48.559,10l1.859,2.879H49.309L47.981,10.68,46.63,12.874H45.568Z" transform="translate(-2.554 0.366)" fill="#fff"/>
    <path id="Path_295" data-name="Path 295" d="M54,9.789A1.007,1.007,0,0,0,54.306,9a.855.855,0,0,0-.314-.743,1.563,1.563,0,0,0-.922-.227h-.523v1.978a3.806,3.806,0,0,0,.554.058A1.291,1.291,0,0,0,54,9.789ZM51.585,7.3h1.5a2.623,2.623,0,0,1,1.62.431,1.476,1.476,0,0,1,.562,1.247,1.824,1.824,0,0,1-.252.968,1.66,1.66,0,0,1-.7.635,2.315,2.315,0,0,1-1.035.221,4.01,4.01,0,0,1-.731-.077v2.148h-.962Z" transform="translate(-3.013 0.366)" fill="#fff"/>
    <path id="Path_296" data-name="Path 296" d="M56.6,7.3h.962V12.05h2.305l-.081.824H56.6Z" transform="translate(-3.396 0.366)" fill="#fff"/>
    <path id="Path_297" data-name="Path 297" d="M64.112,11.911a1.642,1.642,0,0,0,.6-.747,2.778,2.778,0,0,0,.2-1.087,3.021,3.021,0,0,0-.177-1.07,1.589,1.589,0,0,0-.566-.749,1.676,1.676,0,0,0-1-.279,1.7,1.7,0,0,0-.993.283,1.732,1.732,0,0,0-.612.758,2.633,2.633,0,0,0-.2,1.049,2.87,2.87,0,0,0,.192,1.081,1.645,1.645,0,0,0,.589.754,1.67,1.67,0,0,0,.981.277A1.727,1.727,0,0,0,64.112,11.911Zm-2.494.683a2.33,2.33,0,0,1-.935-.984,3.193,3.193,0,0,1-.323-1.472A3.285,3.285,0,0,1,60.7,8.6a2.426,2.426,0,0,1,.993-1.02,3.106,3.106,0,0,1,1.53-.36,2.874,2.874,0,0,1,1.451.348,2.3,2.3,0,0,1,.927.98,3.2,3.2,0,0,1,.319,1.463,3.3,3.3,0,0,1-.348,1.559,2.439,2.439,0,0,1-.993,1.02,3.07,3.07,0,0,1-1.514.358A2.872,2.872,0,0,1,61.618,12.594Z" transform="translate(-3.683 0.373)" fill="#fff"/>
    <path id="Path_298" data-name="Path 298" d="M69.056,9.937a1.348,1.348,0,0,0,.62-.137,1.013,1.013,0,0,0,.419-.385,1.089,1.089,0,0,0,.15-.575.71.71,0,0,0-.266-.614,1.3,1.3,0,0,0-.774-.194h-.7v1.9ZM67.548,7.3h1.743a2.326,2.326,0,0,1,1.445.381,1.3,1.3,0,0,1,.491,1.089,1.65,1.65,0,0,1-.177.779,1.721,1.721,0,0,1-.439.548,1.951,1.951,0,0,1-.539.316l1.713,2.459H70.669l-1.451-2.209H68.51v2.209h-.962Z" transform="translate(-4.232 0.366)" fill="#fff"/>
    <path id="Path_299" data-name="Path 299" d="M72.96,7.3h3.283l-.092.793H73.922V9.629h2.1v.743h-2.1v1.7H76.27l-.081.8H72.96Z" transform="translate(-4.645 0.366)" fill="#fff"/>
    <path id="Path_300" data-name="Path 300" d="M80.381,7.3h.962v5.573h-.962Z" transform="translate(-5.211 0.366)" fill="#fff"/>
    <path id="Path_301" data-name="Path 301" d="M84.034,8.106H82.306l.085-.8h4.338l-.089.8H85v4.768h-.962Z" transform="translate(-5.358 0.366)" fill="#fff"/>
    <path id="Path_302" data-name="Path 302" d="M94,11.911a1.644,1.644,0,0,0,.6-.747,2.785,2.785,0,0,0,.2-1.087,3.025,3.025,0,0,0-.177-1.07,1.59,1.59,0,0,0-.566-.749,1.677,1.677,0,0,0-1-.279,1.7,1.7,0,0,0-.993.283,1.728,1.728,0,0,0-.612.758,2.628,2.628,0,0,0-.2,1.049,2.865,2.865,0,0,0,.193,1.081,1.646,1.646,0,0,0,.589.754,1.671,1.671,0,0,0,.982.277A1.728,1.728,0,0,0,94,11.911Zm-2.494.683a2.328,2.328,0,0,1-.935-.984,3.194,3.194,0,0,1-.323-1.472A3.285,3.285,0,0,1,90.6,8.6a2.424,2.424,0,0,1,.993-1.02,3.106,3.106,0,0,1,1.53-.36,2.875,2.875,0,0,1,1.451.348,2.307,2.307,0,0,1,.927.98,3.2,3.2,0,0,1,.319,1.463,3.3,3.3,0,0,1-.348,1.559,2.441,2.441,0,0,1-.993,1.02,3.071,3.071,0,0,1-1.515.358A2.871,2.871,0,0,1,91.51,12.594Z" transform="translate(-5.964 0.373)" fill="#fff"/>
    <path id="Path_303" data-name="Path 303" d="M97.439,7.3h1.1l2.756,4.318c-.025-.41-.035-.789-.035-1.135V7.3h.892v5.573h-1.07l-2.8-4.388q.042.747.042,1.324v3.064h-.893Z" transform="translate(-6.513 0.366)" fill="#fff"/>
    <path id="Path_305" data-name="Path 305" d="M25.552,7.333H15.32c-4.82,0-6.584,1.763-6.584,6.583V24.15c0,4.82,1.763,6.583,6.584,6.583h10.23c4.82,0,6.587-1.763,6.587-6.583V13.917C32.136,9.1,30.373,7.333,25.552,7.333ZM18.714,21.456l-.278.637H17.8l1.348-3.058H19.7l1.342,3.058h-.651l-.275-.637Zm10.2.635h.613V19.035h-.613Zm-2.438-1.313H27.6v-.557H26.474v-.626h1.639v-.557H25.862v3.055h2.31v-.557h-1.7Zm-2.434.361-.695-2.1h-.506l-.695,2.1-.676-2.1h-.661l1.066,3.058h.514l.7-2.009.7,2.009H24.3l1.064-3.058h-.644Zm-7.174-.353c0,.5-.247.763-.7.763s-.7-.273-.7-.784V19.037h-.621v1.749a1.214,1.214,0,0,0,1.312,1.354,1.231,1.231,0,0,0,1.324-1.379V19.035h-.62Zm-3.5-1.751h.62v3.059h-.62V20.852h-1.4v1.242h-.621V19.035h.621v1.234h1.4Zm3.171-7.79a3.895,3.895,0,1,0,7.79,0h-.55a3.345,3.345,0,1,1-6.689,0Z" transform="translate(0.257 0.364)" fill="#fff" fill-rule="evenodd"/>
    <path id="Path_306" data-name="Path 306" d="M3.328,36.191l.419-.823Zm118.765-2.725-.823-.419Zm-2.725,2.725.419.823Zm0-35.588.419-.823Zm2.725,2.725.823-.419ZM9.9.847H112.8V-1H9.9ZM121.849,9.9v17H123.7V9.9ZM112.8,35.947H9.9v1.847H112.8ZM.847,26.9V9.9H-1v17ZM9.9,35.947c-1.761,0-3.026,0-4.02-.082a5.581,5.581,0,0,1-2.132-.5l-.839,1.646a7.368,7.368,0,0,0,2.821.692c1.086.089,2.44.088,4.17.088ZM-1,26.9c0,1.731,0,3.084.088,4.17A7.369,7.369,0,0,0-.22,33.886l1.646-.839a5.578,5.578,0,0,1-.5-2.132C.848,29.922.847,28.656.847,26.9Zm4.747,8.473a5.311,5.311,0,0,1-2.321-2.321l-1.646.839a7.158,7.158,0,0,0,3.128,3.128Zm118.1-8.473c0,1.761,0,3.026-.082,4.02a5.58,5.58,0,0,1-.5,2.132l1.646.839a7.363,7.363,0,0,0,.693-2.821c.089-1.086.088-2.44.088-4.17Zm-9.052,10.9c1.731,0,3.084,0,4.17-.088a7.365,7.365,0,0,0,2.82-.692l-.839-1.646a5.575,5.575,0,0,1-2.132.5c-.993.081-2.258.082-4.02.082Zm8.473-4.747a5.31,5.31,0,0,1-2.321,2.321l.839,1.646a7.155,7.155,0,0,0,3.128-3.128ZM112.8.847c1.761,0,3.027,0,4.02.082a5.573,5.573,0,0,1,2.132.5l.839-1.646a7.366,7.366,0,0,0-2.82-.692C115.881-1,114.528-1,112.8-1ZM123.7,9.9c0-1.731,0-3.084-.088-4.17a7.363,7.363,0,0,0-.693-2.821l-1.646.839a5.581,5.581,0,0,1,.5,2.132c.081.993.082,2.259.082,4.02Zm-4.748-8.473a5.31,5.31,0,0,1,2.321,2.321l1.646-.839A7.155,7.155,0,0,0,119.788-.22ZM9.9-1c-1.731,0-3.084,0-4.17.088A7.369,7.369,0,0,0,2.909-.22l.839,1.646A5.579,5.579,0,0,1,5.88.929C6.873.848,8.138.847,9.9.847ZM.847,9.9c0-1.761,0-3.026.082-4.02a5.579,5.579,0,0,1,.5-2.132L-.22,2.909A7.369,7.369,0,0,0-.912,5.729C-1,6.815-1,8.169-1,9.9ZM2.909-.22A7.159,7.159,0,0,0-.22,2.909l1.646.839A5.311,5.311,0,0,1,3.747,1.426Z" transform="translate(1 1)" fill="#fff"/>
  </g>
</svg>
