<svg xmlns="http://www.w3.org/2000/svg" width="112.689" height="38.794" viewBox="0 0 112.689 38.794">
  <g id="Group_70" data-name="Group 70" transform="translate(0 0)">
    <path id="Path_259" data-name="Path 259" d="M81.416,19.2v2.116H80.09V22.7h1.326V27.42c0,1.61.728,2.254,2.561,2.254a5.325,5.325,0,0,0,.9-.084V28.218a5.43,5.43,0,0,1-.629.038c-.82,0-1.181-.383-1.181-1.257V22.7h1.809V21.317H83.065V19.2Z" transform="translate(-5.189 -0.542)" fill="#fff"/>
    <path id="Path_260" data-name="Path 260" d="M90,29.948c2.438,0,3.933-1.633,3.933-4.34,0-2.691-1.5-4.332-3.933-4.332s-3.941,1.641-3.941,4.332C86.057,28.315,87.552,29.948,90,29.948Zm0-1.464c-1.434,0-2.239-1.05-2.239-2.875,0-1.809.805-2.868,2.239-2.868s2.239,1.058,2.239,2.868S91.424,28.483,90,28.483Z" transform="translate(-5.644 -0.7)" fill="#fff"/>
    <path id="Path_261" data-name="Path 261" d="M95.967,29.789h1.648v-4.93A1.957,1.957,0,0,1,99.747,22.9a4.532,4.532,0,0,1,.92.1V21.37a3.482,3.482,0,0,0-.736-.069,2.265,2.265,0,0,0-2.254,1.418h-.123v-1.28H95.967Z" transform="translate(-6.401 -0.702)" fill="#fff"/>
    <path id="Path_262" data-name="Path 262" d="M105.169,22.679a2.015,2.015,0,0,1,2.055,2.162h-4.218A2.135,2.135,0,0,1,105.169,22.679Zm2.048,4.853a2,2,0,0,1-1.986,1.012,2.207,2.207,0,0,1-2.224-2.392V26.06h5.9v-.575c0-2.622-1.4-4.209-3.726-4.209-2.354,0-3.849,1.694-3.849,4.363s1.464,4.309,3.856,4.309c1.909,0,3.243-.92,3.619-2.415Z" transform="translate(-6.81 -0.7)" fill="#fff"/>
    <path id="Path_263" data-name="Path 263" d="M69.822,26.436c.127,2.05,1.836,3.362,4.379,3.362,2.718,0,4.419-1.375,4.419-3.568,0-1.724-.97-2.678-3.322-3.226l-1.264-.31c-1.494-.35-2.1-.819-2.1-1.637,0-1.033.938-1.709,2.344-1.709A2.19,2.19,0,0,1,76.7,21.064h1.732c-.1-1.931-1.8-3.29-4.132-3.29-2.5,0-4.172,1.359-4.172,3.4,0,1.685.946,2.686,3.02,3.171l1.478.358c1.518.358,2.185.882,2.185,1.756,0,1.017-1.049,1.756-2.479,1.756-1.534,0-2.6-.691-2.75-1.78Z" transform="translate(-4.405 -0.433)" fill="#fff"/>
    <path id="Path_264" data-name="Path 264" d="M50.977,21.3a2.9,2.9,0,0,0-2.622,1.518h-.123v-1.38H46.645V32.564h1.648V28.524h.13a2.723,2.723,0,0,0,2.569,1.4c2.108,0,3.45-1.664,3.45-4.317S53.1,21.3,50.977,21.3Zm-.468,7.146c-1.38,0-2.246-1.089-2.246-2.829s.866-2.837,2.254-2.837,2.231,1.066,2.231,2.829S51.912,28.447,50.509,28.447Z" transform="translate(-2.636 -0.702)" fill="#fff"/>
    <path id="Path_265" data-name="Path 265" d="M60.974,21.3a2.9,2.9,0,0,0-2.622,1.518h-.123v-1.38H56.642V32.564H58.29V28.524h.13a2.723,2.723,0,0,0,2.568,1.4c2.109,0,3.45-1.664,3.45-4.317S63.1,21.3,60.974,21.3Zm-.468,7.146c-1.38,0-2.246-1.089-2.246-2.829s.866-2.837,2.254-2.837,2.231,1.066,2.231,2.829S61.909,28.447,60.506,28.447Z" transform="translate(-3.399 -0.702)" fill="#fff"/>
    <path id="Path_266" data-name="Path 266" d="M42.757,29.542h1.891l-4.14-11.467H38.593l-4.14,11.467H36.28L37.337,26.5h4.371Zm-3.3-9.385h.135L41.255,25H37.79Z" transform="translate(-1.706 -0.456)" fill="#fff"/>
    <path id="Path_267" data-name="Path 267" d="M35.651,8.711v5.532h2a2.458,2.458,0,0,0,2.6-2.783,2.447,2.447,0,0,0-2.6-2.749Zm.859.782h1.043a1.744,1.744,0,0,1,1.825,1.978,1.739,1.739,0,0,1-1.825,1.99H36.51Z" transform="translate(-1.797 0.259)" fill="#fff"/>
    <path id="Path_268" data-name="Path 268" d="M43.634,14.429a1.915,1.915,0,0,0,1.967-2.17,1.978,1.978,0,1,0-3.937,0A1.916,1.916,0,0,0,43.634,14.429Zm0-.732c-.717,0-1.119-.525-1.119-1.438s.4-1.434,1.119-1.434,1.119.529,1.119,1.434S44.347,13.7,43.634,13.7Z" transform="translate(-2.256 0.153)" fill="#fff"/>
    <path id="Path_269" data-name="Path 269" d="M52.34,10.18h-.824l-.744,3.186h-.065l-.859-3.186h-.79L48.2,13.366h-.061l-.748-3.186h-.836l1.15,4.175h.847l.859-3.075h.065l.863,3.075h.855Z" transform="translate(-2.63 0.146)" fill="#fff"/>
    <path id="Path_270" data-name="Path 270" d="M53.846,14.348h.824V11.906a.958.958,0,0,1,1-1.058c.61,0,.9.334.9,1v2.5h.824v-2.7a1.358,1.358,0,0,0-1.445-1.553,1.25,1.25,0,0,0-1.246.744h-.061v-.663h-.794Z" transform="translate(-3.186 0.153)" fill="#fff"/>
    <path id="Path_271" data-name="Path 271" d="M59.09,14.22h.824v-5.8H59.09Z" transform="translate(-3.586 0.281)" fill="#fff"/>
    <path id="Path_272" data-name="Path 272" d="M63.176,14.429a1.915,1.915,0,0,0,1.967-2.17,1.978,1.978,0,1,0-3.937,0A1.916,1.916,0,0,0,63.176,14.429Zm0-.732c-.717,0-1.119-.525-1.119-1.438s.4-1.434,1.119-1.434,1.119.529,1.119,1.434S63.889,13.7,63.176,13.7Z" transform="translate(-3.748 0.153)" fill="#fff"/>
    <path id="Path_273" data-name="Path 273" d="M67.994,13.723c-.449,0-.774-.218-.774-.594s.261-.564.836-.6l1.02-.065v.349A.984.984,0,0,1,67.994,13.723Zm-.211.694a1.4,1.4,0,0,0,1.254-.656H69.1v.587H69.9V11.5c0-.882-.59-1.4-1.637-1.4-.947,0-1.622.46-1.706,1.177h.8c.092-.3.41-.464.87-.464.564,0,.855.249.855.69v.36l-1.131.065c-.993.061-1.553.495-1.553,1.246A1.261,1.261,0,0,0,67.783,14.417Z" transform="translate(-4.143 0.153)" fill="#fff"/>
    <path id="Path_274" data-name="Path 274" d="M73.07,14.289a1.449,1.449,0,0,0,1.311-.728h.065v.659h.79v-5.8h-.824v2.293H74.35a1.376,1.376,0,0,0-1.28-.732c-1.054,0-1.733.836-1.733,2.154S72.008,14.289,73.07,14.289Zm.234-3.573c.69,0,1.123.548,1.123,1.418S74,13.549,73.3,13.549s-1.116-.533-1.116-1.418S72.61,10.716,73.3,10.716Z" transform="translate(-4.521 0.281)" fill="#fff"/>
    <path id="Path_275" data-name="Path 275" d="M81.182,14.429a1.915,1.915,0,0,0,1.967-2.17,1.978,1.978,0,1,0-3.937,0A1.916,1.916,0,0,0,81.182,14.429Zm0-.732c-.717,0-1.119-.525-1.119-1.438s.4-1.434,1.119-1.434,1.119.529,1.119,1.434S81.895,13.7,81.182,13.7Z" transform="translate(-5.122 0.153)" fill="#fff"/>
    <path id="Path_276" data-name="Path 276" d="M84.655,14.348h.824V11.906a.958.958,0,0,1,1-1.058c.61,0,.9.334.9,1v2.5H88.2v-2.7a1.358,1.358,0,0,0-1.445-1.553,1.25,1.25,0,0,0-1.246.744h-.061v-.663h-.794Z" transform="translate(-5.537 0.153)" fill="#fff"/>
    <path id="Path_277" data-name="Path 277" d="M92.549,9.055v1.058h-.663v.694h.663v2.358c0,.805.364,1.127,1.28,1.127a2.661,2.661,0,0,0,.449-.042v-.686a2.725,2.725,0,0,1-.314.019c-.41,0-.59-.192-.59-.629V10.807h.9v-.694h-.9V9.055Z" transform="translate(-6.089 0.232)" fill="#fff"/>
    <path id="Path_278" data-name="Path 278" d="M95.673,14.22H96.5V11.782a.975.975,0,0,1,1.05-1.058c.583,0,.893.337.893,1V14.22h.824v-2.7a1.375,1.375,0,0,0-1.438-1.556,1.285,1.285,0,0,0-1.273.748H96.49v-2.3h-.817Z" transform="translate(-6.378 0.281)" fill="#fff"/>
    <path id="Path_279" data-name="Path 279" d="M102.622,10.795a1.008,1.008,0,0,1,1.028,1.081h-2.109A1.067,1.067,0,0,1,102.622,10.795Zm1.023,2.427a1,1,0,0,1-.993.506,1.1,1.1,0,0,1-1.111-1.2v-.046h2.947V12.2c0-1.311-.7-2.1-1.863-2.1a1.925,1.925,0,0,0-1.924,2.181,1.9,1.9,0,0,0,1.928,2.154,1.7,1.7,0,0,0,1.809-1.208Z" transform="translate(-6.762 0.153)" fill="#fff"/>
    <path id="Path_280" data-name="Path 280" d="M23.64,19.818a4.608,4.608,0,0,1,2.177-3.835A4.737,4.737,0,0,0,22.13,13.99c-1.551-.163-3.055.928-3.845.928-.806,0-2.023-.912-3.333-.885a4.95,4.95,0,0,0-4.132,2.52c-1.786,3.093-.454,7.638,1.257,10.138.856,1.224,1.857,2.592,3.166,2.543,1.281-.053,1.76-.817,3.306-.817s1.981.817,3.317.786c1.375-.022,2.241-1.23,3.067-2.465a10.123,10.123,0,0,0,1.4-2.856A4.456,4.456,0,0,1,23.64,19.818Z" transform="translate(0.163 -0.143)" fill="#fff"/>
    <path id="Path_282" data-name="Path 282" d="M3.915,36.379l-.353.853Zm106.358-3.5.853.353Zm-3.5,3.5.353.853Zm0-35.963.353-.853Zm3.5,3.5.853-.353ZM9.622.847h91.444V-1H9.622ZM109.841,9.622v17.55h1.847V9.622Zm-8.775,26.325H9.622v1.847h91.444ZM.847,27.172V9.622H-1v17.55Zm8.775,8.775c-1.519,0-2.612,0-3.475-.059a5.87,5.87,0,0,1-1.879-.362l-.707,1.707a7.658,7.658,0,0,0,2.46.5c.94.064,2.107.064,3.6.064ZM-1,27.172c0,1.494,0,2.66.064,3.6a7.657,7.657,0,0,0,.5,2.46l1.707-.707a5.869,5.869,0,0,1-.362-1.879c-.059-.863-.059-1.956-.059-3.475Zm5.269,8.353a5.542,5.542,0,0,1-3-3l-1.707.707a7.389,7.389,0,0,0,4,4Zm105.573-8.353c0,1.519,0,2.612-.059,3.475a5.852,5.852,0,0,1-.363,1.879l1.707.707a7.663,7.663,0,0,0,.5-2.46c.065-.94.064-2.107.064-3.6Zm-8.775,10.622c1.494,0,2.66,0,3.6-.064a7.655,7.655,0,0,0,2.46-.5l-.707-1.707a5.87,5.87,0,0,1-1.879.362c-.863.059-1.956.059-3.475.059Zm8.353-5.269a5.542,5.542,0,0,1-3,3l.707,1.707a7.388,7.388,0,0,0,4-4ZM101.066.847c1.519,0,2.612,0,3.475.059a5.87,5.87,0,0,1,1.879.362l.707-1.707a7.654,7.654,0,0,0-2.46-.5C103.727-1,102.56-1,101.066-1Zm10.622,8.775c0-1.494,0-2.66-.064-3.6a7.663,7.663,0,0,0-.5-2.46l-1.707.707a5.852,5.852,0,0,1,.363,1.879c.058.863.059,1.956.059,3.475ZM106.42,1.269a5.542,5.542,0,0,1,3,3l1.707-.707a7.388,7.388,0,0,0-4-4ZM9.622-1c-1.494,0-2.66,0-3.6.064a7.657,7.657,0,0,0-2.46.5l.707,1.707A5.869,5.869,0,0,1,6.147.907C7.01.848,8.1.847,9.622.847ZM.847,9.622c0-1.519,0-2.612.059-3.475a5.87,5.87,0,0,1,.362-1.879L-.438,3.562a7.657,7.657,0,0,0-.5,2.46C-1,6.962-1,8.129-1,9.622ZM3.562-.438a7.389,7.389,0,0,0-4,4l1.707.707a5.542,5.542,0,0,1,3-3Z" transform="translate(1 1)" fill="#fff"/>
  </g>
</svg>
