<svg xmlns="http://www.w3.org/2000/svg" width="112.689" height="38.794" viewBox="0 0 112.689 38.794">
  <g id="Group_72" data-name="Group 72" transform="translate(0 0)">
    <path id="Path_240" data-name="Path 240" d="M53.5,30.284h-1.7v-6.7q0-.823.1-2.013h-.029a6.946,6.946,0,0,1-.281.974l-3.089,7.736H47.312l-3.1-7.678a7.23,7.23,0,0,1-.274-1.032h-.029q.058.621.058,2.028v6.682H42.383V19.936H44.8l2.721,6.891a10.178,10.178,0,0,1,.4,1.184h.036q.267-.816.433-1.212l2.771-6.863H53.5Z" transform="translate(-2.311 -0.598)" fill="#fff"/>
    <path id="Path_241" data-name="Path 241" d="M57.488,21.3a1.019,1.019,0,0,1-.707-.267.884.884,0,0,1-.289-.678.906.906,0,0,1,.289-.686,1,1,0,0,1,.707-.274,1.023,1.023,0,0,1,.722.274.926.926,0,0,1,0,1.357A1.023,1.023,0,0,1,57.488,21.3Zm.83,8.941H56.644V22.853h1.674Z" transform="translate(-3.388 -0.557)" fill="#fff"/>
    <path id="Path_242" data-name="Path 242" d="M65.774,30.175a4.128,4.128,0,0,1-2.1.512,3.563,3.563,0,0,1-2.656-1.025,3.655,3.655,0,0,1-1.01-2.67,4,4,0,0,1,1.082-2.93A3.888,3.888,0,0,1,64,22.951a4.24,4.24,0,0,1,1.782.354v1.559a2.7,2.7,0,0,0-1.645-.577,2.281,2.281,0,0,0-1.739.722,2.612,2.612,0,0,0-.678,1.876,2.512,2.512,0,0,0,.635,1.811,2.279,2.279,0,0,0,1.717.664,2.678,2.678,0,0,0,1.7-.642Z" transform="translate(-3.656 -0.828)" fill="#fff"/>
    <path id="Path_243" data-name="Path 243" d="M72.022,24.723a1.387,1.387,0,0,0-.873-.238,1.5,1.5,0,0,0-1.241.671,3,3,0,0,0-.5,1.826v3.536H67.735V23.128h1.674v1.523h.029a2.563,2.563,0,0,1,.751-1.212,1.707,1.707,0,0,1,1.14-.44,1.411,1.411,0,0,1,.693.137Z" transform="translate(-4.246 -0.832)" fill="#fff"/>
    <path id="Path_244" data-name="Path 244" d="M76.574,30.687a3.682,3.682,0,0,1-2.735-1.032,3.761,3.761,0,0,1-1.017-2.749,3.643,3.643,0,0,1,3.933-3.955,3.545,3.545,0,0,1,2.7,1.018,3.93,3.93,0,0,1,.967,2.822,3.878,3.878,0,0,1-1.046,2.836A3.74,3.74,0,0,1,76.574,30.687Zm.079-6.4a1.911,1.911,0,0,0-1.551.686,2.871,2.871,0,0,0-.57,1.891,2.718,2.718,0,0,0,.577,1.833,1.944,1.944,0,0,0,1.544.664,1.829,1.829,0,0,0,1.515-.657,2.893,2.893,0,0,0,.534-1.869,2.936,2.936,0,0,0-.534-1.883A1.821,1.821,0,0,0,76.653,24.286Z" transform="translate(-4.634 -0.828)" fill="#fff"/>
    <path id="Path_245" data-name="Path 245" d="M82.08,30.283V28.732a3.34,3.34,0,0,0,2.071.714q1.515,0,1.515-.895a.69.69,0,0,0-.13-.426,1.2,1.2,0,0,0-.354-.318,2.621,2.621,0,0,0-.52-.245L84,27.317a7.33,7.33,0,0,1-.823-.382,2.626,2.626,0,0,1-.606-.455,1.8,1.8,0,0,1-.361-.585,2.14,2.14,0,0,1-.123-.758,1.732,1.732,0,0,1,.253-.938,2.145,2.145,0,0,1,.678-.686,3.134,3.134,0,0,1,.967-.419,4.321,4.321,0,0,1,1.118-.144,5.084,5.084,0,0,1,1.833.31v1.465a3.09,3.09,0,0,0-1.79-.534,2.38,2.38,0,0,0-.577.065,1.485,1.485,0,0,0-.433.18.872.872,0,0,0-.281.281.644.644,0,0,0-.1.354.763.763,0,0,0,.1.4.962.962,0,0,0,.3.3,3.147,3.147,0,0,0,.476.231q.281.1.642.224a8.922,8.922,0,0,1,.852.4,2.8,2.8,0,0,1,.649.462,1.747,1.747,0,0,1,.411.592,1.982,1.982,0,0,1,.144.794,1.823,1.823,0,0,1-.26.981,2.165,2.165,0,0,1-.693.693,3.18,3.18,0,0,1-1,.4,5.5,5.5,0,0,1-3.291-.267Z" transform="translate(-5.341 -0.828)" fill="#fff"/>
    <path id="Path_246" data-name="Path 246" d="M92.4,30.687a3.682,3.682,0,0,1-2.735-1.032,3.761,3.761,0,0,1-1.018-2.749,3.643,3.643,0,0,1,3.933-3.955,3.545,3.545,0,0,1,2.7,1.018,3.931,3.931,0,0,1,.967,2.822A3.878,3.878,0,0,1,95.2,29.626,3.741,3.741,0,0,1,92.4,30.687Zm.079-6.4a1.911,1.911,0,0,0-1.552.686,2.87,2.87,0,0,0-.57,1.891,2.718,2.718,0,0,0,.577,1.833,1.944,1.944,0,0,0,1.544.664A1.829,1.829,0,0,0,94,28.7a2.893,2.893,0,0,0,.534-1.869A2.936,2.936,0,0,0,94,24.95,1.821,1.821,0,0,0,92.482,24.286Z" transform="translate(-5.842 -0.828)" fill="#fff"/>
    <path id="Path_247" data-name="Path 247" d="M102.525,20.645a1.524,1.524,0,0,0-.772-.195q-1.219,0-1.219,1.378v1h1.717v1.313H100.54v6.076H98.867V24.145H97.6V22.832h1.263v-1.2a2.321,2.321,0,0,1,.765-1.84,2.775,2.775,0,0,1,1.912-.678,2.846,2.846,0,0,1,.982.137Z" transform="translate(-6.526 -0.535)" fill="#fff"/>
    <path id="Path_248" data-name="Path 248" d="M107.437,30.268a2.9,2.9,0,0,1-1.292.245q-2.15,0-2.15-2.064V24.272H102.76V22.958h1.234v-1.71l1.675-.476v2.187h1.768v1.313h-1.768v3.695a1.455,1.455,0,0,0,.238.938.987.987,0,0,0,.793.281,1.152,1.152,0,0,0,.736-.245Z" transform="translate(-6.919 -0.662)" fill="#fff"/>
    <path id="Path_249" data-name="Path 249" d="M47.083,14.2a4.4,4.4,0,0,1-2.138.523,2.976,2.976,0,0,1-2.207-.848,3.043,3.043,0,0,1-.844-2.245,3.151,3.151,0,0,1,.921-2.339,3.2,3.2,0,0,1,2.348-.917,4.368,4.368,0,0,1,1.722.3v1.05A2.965,2.965,0,0,0,45.2,9.254a2.151,2.151,0,0,0-1.611.647,2.309,2.309,0,0,0-.626,1.675,2.423,2.423,0,0,0,.54,1.667,1.866,1.866,0,0,0,1.465.6,2.319,2.319,0,0,0,1.1-.244V12.142H44.774v-.857h2.309Z" transform="translate(-2.274 0.285)" fill="#fff"/>
    <path id="Path_250" data-name="Path 250" d="M52.611,12.844H49.62a1.268,1.268,0,0,0,.373.938,1.4,1.4,0,0,0,.985.33,2.168,2.168,0,0,0,1.29-.42v.8a2.946,2.946,0,0,1-1.585.377,1.973,1.973,0,0,1-1.521-.6,2.4,2.4,0,0,1-.548-1.684,2.335,2.335,0,0,1,.6-1.667,1.987,1.987,0,0,1,1.508-.647,1.729,1.729,0,0,1,1.392.578,2.4,2.4,0,0,1,.493,1.607Zm-.96-.7a1.272,1.272,0,0,0-.253-.831.842.842,0,0,0-.685-.3.972.972,0,0,0-.728.313,1.436,1.436,0,0,0-.364.818Z" transform="translate(-2.787 0.139)" fill="#fff"/>
    <path id="Path_251" data-name="Path 251" d="M56.337,14.622a1.723,1.723,0,0,1-.767.146q-1.277,0-1.277-1.225V11.061H53.56v-.78h.733V9.266l.994-.283v1.3h1.05v.78h-1.05v2.194a.865.865,0,0,0,.141.557.587.587,0,0,0,.471.167.684.684,0,0,0,.437-.146Z" transform="translate(-3.164 0.238)" fill="#fff"/>
    <path id="Path_252" data-name="Path 252" d="M60.794,9.3a.605.605,0,0,1-.42-.159.525.525,0,0,1-.171-.4.538.538,0,0,1,.171-.407.6.6,0,0,1,.42-.163.607.607,0,0,1,.428.163.55.55,0,0,1,0,.806A.607.607,0,0,1,60.794,9.3Zm.493,5.309h-.994V10.219h.994Z" transform="translate(-3.671 0.3)" fill="#fff"/>
    <path id="Path_253" data-name="Path 253" d="M65.157,14.622a1.723,1.723,0,0,1-.767.146q-1.277,0-1.277-1.225V11.061h-.733v-.78h.733V9.266l.994-.283v1.3h1.05v.78h-1.05v2.194a.864.864,0,0,0,.141.557.587.587,0,0,0,.471.167.684.684,0,0,0,.437-.146Z" transform="translate(-3.837 0.238)" fill="#fff"/>
    <path id="Path_254" data-name="Path 254" d="M71.565,8.908a.9.9,0,0,0-.458-.116q-.724,0-.724.818v.6H71.4v.78H70.386v3.608h-.994V10.986h-.75v-.78h.75V9.5A1.378,1.378,0,0,1,69.847,8.4,1.649,1.649,0,0,1,70.982,8a1.686,1.686,0,0,1,.583.081Z" transform="translate(-4.315 0.313)" fill="#fff"/>
    <path id="Path_255" data-name="Path 255" d="M75.035,11.329a.824.824,0,0,0-.518-.141.887.887,0,0,0-.737.4,1.782,1.782,0,0,0-.3,1.084v2.1H72.49V10.383h.994v.9H73.5a1.521,1.521,0,0,1,.446-.72,1.013,1.013,0,0,1,.677-.261.837.837,0,0,1,.411.081Z" transform="translate(-4.609 0.137)" fill="#fff"/>
    <path id="Path_256" data-name="Path 256" d="M78.023,14.871a2.186,2.186,0,0,1-1.624-.613,2.233,2.233,0,0,1-.6-1.632,2.163,2.163,0,0,1,2.335-2.348,2.1,2.1,0,0,1,1.6.6,2.334,2.334,0,0,1,.574,1.675,2.3,2.3,0,0,1-.621,1.684A2.221,2.221,0,0,1,78.023,14.871Zm.047-3.8a1.135,1.135,0,0,0-.921.407,1.7,1.7,0,0,0-.338,1.123,1.614,1.614,0,0,0,.343,1.088,1.154,1.154,0,0,0,.917.394,1.086,1.086,0,0,0,.9-.39,1.717,1.717,0,0,0,.317-1.11,1.743,1.743,0,0,0-.317-1.118A1.081,1.081,0,0,0,78.07,11.07Z" transform="translate(-4.861 0.139)" fill="#fff"/>
    <path id="Path_257" data-name="Path 257" d="M88.434,14.768H87.44V12.377a1.92,1.92,0,0,0-.2-1,.712.712,0,0,0-.656-.309.8.8,0,0,0-.664.39,1.6,1.6,0,0,0-.27.934v2.374h-1V12.3q0-1.225-.865-1.225a.786.786,0,0,0-.664.369,1.634,1.634,0,0,0-.257.955v2.374h-.994V10.38h.994v.694h.017a1.52,1.52,0,0,1,1.384-.8,1.288,1.288,0,0,1,.793.253,1.234,1.234,0,0,1,.467.656,1.566,1.566,0,0,1,1.457-.908q1.448,0,1.448,1.787Z" transform="translate(-5.325 0.139)" fill="#fff"/>
    <rect id="Rectangle_36" data-name="Rectangle 36" width="10.16" height="10.16" transform="translate(12.008 8.441)" fill="#fff"/>
    <rect id="Rectangle_37" data-name="Rectangle 37" width="10.16" height="10.16" transform="translate(12.008 19.525)" fill="#fff"/>
    <rect id="Rectangle_38" data-name="Rectangle 38" width="10.16" height="10.16" transform="translate(23.092 8.441)" fill="#fff"/>
    <rect id="Rectangle_39" data-name="Rectangle 39" width="10.16" height="10.16" transform="translate(23.092 19.525)" fill="#fff"/>
    <path id="Path_258" data-name="Path 258" d="M3.915,36.379l-.353.853Zm106.358-3.5.853.353Zm-3.5,3.5.353.853Zm0-35.963.353-.853Zm3.5,3.5.853-.353ZM9.622.847h91.444V-1H9.622ZM109.841,9.622v17.55h1.847V9.622Zm-8.775,26.325H9.622v1.847h91.444ZM.847,27.172V9.622H-1v17.55Zm8.775,8.775c-1.519,0-2.612,0-3.475-.059a5.87,5.87,0,0,1-1.879-.362l-.707,1.707a7.658,7.658,0,0,0,2.46.5c.94.064,2.107.064,3.6.064ZM-1,27.172c0,1.494,0,2.66.064,3.6a7.657,7.657,0,0,0,.5,2.46l1.707-.707a5.869,5.869,0,0,1-.362-1.879c-.059-.863-.059-1.956-.059-3.475Zm5.269,8.353a5.542,5.542,0,0,1-3-3l-1.707.707a7.389,7.389,0,0,0,4,4Zm105.573-8.353c0,1.519,0,2.612-.059,3.475a5.852,5.852,0,0,1-.363,1.879l1.707.707a7.663,7.663,0,0,0,.5-2.46c.065-.94.064-2.107.064-3.6Zm-8.775,10.622c1.494,0,2.66,0,3.6-.064a7.655,7.655,0,0,0,2.46-.5l-.707-1.707a5.87,5.87,0,0,1-1.879.362c-.863.059-1.956.059-3.475.059Zm8.353-5.269a5.542,5.542,0,0,1-3,3l.707,1.707a7.388,7.388,0,0,0,4-4ZM101.066.847c1.519,0,2.612,0,3.475.059a5.87,5.87,0,0,1,1.879.362l.707-1.707a7.654,7.654,0,0,0-2.46-.5C103.727-1,102.56-1,101.066-1Zm10.622,8.775c0-1.494,0-2.66-.064-3.6a7.663,7.663,0,0,0-.5-2.46l-1.707.707a5.852,5.852,0,0,1,.363,1.879c.058.863.059,1.956.059,3.475ZM106.42,1.269a5.542,5.542,0,0,1,3,3l1.707-.707a7.388,7.388,0,0,0-4-4ZM9.622-1c-1.494,0-2.66,0-3.6.064a7.657,7.657,0,0,0-2.46.5l.707,1.707A5.869,5.869,0,0,1,6.147.907C7.01.848,8.1.847,9.622.847ZM.847,9.622c0-1.519,0-2.612.059-3.475a5.87,5.87,0,0,1,.362-1.879L-.438,3.562a7.657,7.657,0,0,0-.5,2.46C-1,6.962-1,8.129-1,9.622ZM3.562-.438a7.389,7.389,0,0,0-4,4l1.707.707a5.542,5.542,0,0,1,3-3Z" transform="translate(1 1)" fill="#fff"/>
  </g>
</svg>
