<svg xmlns="http://www.w3.org/2000/svg" width="38" height="37" viewBox="0 0 38 37">
  <g id="Group_68" data-name="Group 68" transform="translate(0.356)">
    <ellipse id="Ellipse_2" data-name="Ellipse 2" cx="19" cy="18.5" rx="19" ry="18.5" transform="translate(-0.356)" fill="#fff"/>
    <path id="Icon_awesome-twitter" data-name="Icon awesome-twitter" d="M15.9,6.967c.011.157.011.315.011.472A10.26,10.26,0,0,1,5.576,17.77,10.261,10.261,0,0,1,0,16.14a7.512,7.512,0,0,0,.877.045,7.272,7.272,0,0,0,4.508-1.551A3.637,3.637,0,0,1,1.99,12.115a4.579,4.579,0,0,0,.686.056,3.84,3.84,0,0,0,.956-.124A3.632,3.632,0,0,1,.719,8.484V8.439A3.657,3.657,0,0,0,2.361,8.9,3.636,3.636,0,0,1,1.237,4.044a10.321,10.321,0,0,0,7.487,3.8,4.1,4.1,0,0,1-.09-.832,3.634,3.634,0,0,1,6.284-2.484,7.149,7.149,0,0,0,2.3-.877,3.621,3.621,0,0,1-1.6,2,7.279,7.279,0,0,0,2.091-.562A7.805,7.805,0,0,1,15.9,6.967Z" transform="translate(9.644 7.619)" fill="#0171fe"/>
  </g>
</svg>
