<svg id="visual" viewBox="0 0 1600 600" width="1600" height="600" xmlns="http://www.w3.org/2000/svg" xmlns:xlink="http://www.w3.org/1999/xlink" version="1.1"><g transform="translate(-13.286960958621705 -3.319264319056458)"><path d="M217.9 -336.1C279.8 -299.3 325.5 -234.4 373 -161.3C420.6 -88.1 470.1 -6.7 441.4 50.2C412.6 107.1 305.5 139.5 240.5 200.8C175.6 262 152.7 352.2 105 373.3C57.4 394.4 -15.1 346.4 -98.7 326.4C-182.4 306.3 -277.1 314.3 -338.9 275.5C-400.6 236.8 -429.5 151.3 -422.2 72.6C-415 -6.1 -371.7 -78 -321.4 -129.7C-271.2 -181.3 -214 -212.6 -159.3 -252.6C-104.5 -292.6 -52.3 -341.3 12.9 -361.4C78 -381.4 156.1 -372.8 217.9 -336.1" fill="none" stroke="#FFFFFF" stroke-width="44"></path></g></svg>