<svg id="visual" viewBox="0 0 450 900" width="450" height="900" xmlns="http://www.w3.org/2000/svg" xmlns:xlink="http://www.w3.org/1999/xlink" version="1.1"><rect x="0" y="0" width="450" height="900" fill="#ffffff"></rect><defs><linearGradient id="grad1_0" x1="0%" y1="100%" x2="100%" y2="0%"><stop offset="30%" stop-color="#04ff5f" stop-opacity="1"></stop><stop offset="70%" stop-color="#04ff5f" stop-opacity="1"></stop></linearGradient></defs><defs><linearGradient id="grad1_1" x1="0%" y1="100%" x2="100%" y2="0%"><stop offset="30%" stop-color="#04ff5f" stop-opacity="1"></stop><stop offset="70%" stop-color="#8dff97" stop-opacity="1"></stop></linearGradient></defs><defs><linearGradient id="grad1_2" x1="0%" y1="100%" x2="100%" y2="0%"><stop offset="30%" stop-color="#cbffcb" stop-opacity="1"></stop><stop offset="70%" stop-color="#8dff97" stop-opacity="1"></stop></linearGradient></defs><defs><linearGradient id="grad1_3" x1="0%" y1="100%" x2="100%" y2="0%"><stop offset="30%" stop-color="#cbffcb" stop-opacity="1"></stop><stop offset="70%" stop-color="#ffffff" stop-opacity="1"></stop></linearGradient></defs><defs><linearGradient id="grad2_0" x1="0%" y1="100%" x2="100%" y2="0%"><stop offset="30%" stop-color="#04ff5f" stop-opacity="1"></stop><stop offset="70%" stop-color="#04ff5f" stop-opacity="1"></stop></linearGradient></defs><defs><linearGradient id="grad2_1" x1="0%" y1="100%" x2="100%" y2="0%"><stop offset="30%" stop-color="#8dff97" stop-opacity="1"></stop><stop offset="70%" stop-color="#04ff5f" stop-opacity="1"></stop></linearGradient></defs><defs><linearGradient id="grad2_2" x1="0%" y1="100%" x2="100%" y2="0%"><stop offset="30%" stop-color="#8dff97" stop-opacity="1"></stop><stop offset="70%" stop-color="#cbffcb" stop-opacity="1"></stop></linearGradient></defs><defs><linearGradient id="grad2_3" x1="0%" y1="100%" x2="100%" y2="0%"><stop offset="30%" stop-color="#ffffff" stop-opacity="1"></stop><stop offset="70%" stop-color="#cbffcb" stop-opacity="1"></stop></linearGradient></defs><g transform="translate(450, 900)"><path d="M-112.5 0C-110.8 -14.5 -109.2 -29 -103.9 -43.1C-98.7 -57.1 -89.8 -70.8 -77.8 -77.8C-65.8 -84.7 -50.6 -85 -37.1 -89.6C-23.6 -94.3 -11.8 -103.4 0 -112.5L0 0Z" fill="#e6ffe5"></path><path d="M-84.4 0C-83.1 -10.9 -81.9 -21.7 -78 -32.3C-74 -42.9 -67.3 -53.1 -58.3 -58.3C-49.3 -63.6 -38 -63.7 -27.8 -67.2C-17.7 -70.7 -8.9 -77.5 0 -84.4L0 0Z" fill="#aeffb2"></path><path d="M-56.2 0C-55.4 -7.2 -54.6 -14.5 -52 -21.5C-49.3 -28.6 -44.9 -35.4 -38.9 -38.9C-32.9 -42.4 -25.3 -42.5 -18.6 -44.8C-11.8 -47.1 -5.9 -51.7 0 -56.2L0 0Z" fill="#64ff7c"></path><path d="M-28.1 0C-27.7 -3.6 -27.3 -7.2 -26 -10.8C-24.7 -14.3 -22.4 -17.7 -19.4 -19.4C-16.4 -21.2 -12.7 -21.2 -9.3 -22.4C-5.9 -23.6 -3 -25.8 0 -28.1L0 0Z" fill="#04ff5f"></path></g><g transform="translate(0, 0)"><path d="M112.5 0C108.9 13.6 105.3 27.2 100.7 41.7C96.1 56.3 90.6 71.8 79.5 79.5C68.5 87.3 52.1 87.3 37.9 91.5C23.7 95.7 11.9 104.1 0 112.5L0 0Z" fill="#e6ffe5"></path><path d="M84.4 0C81.7 10.2 79 20.4 75.5 31.3C72.1 42.2 67.9 53.8 59.7 59.7C51.4 65.5 39 65.5 28.4 68.6C17.8 71.7 8.9 78.1 0 84.4L0 0Z" fill="#aeffb2"></path><path d="M56.3 0C54.4 6.8 52.6 13.6 50.4 20.9C48.1 28.1 45.3 35.9 39.8 39.8C34.3 43.6 26 43.6 18.9 45.7C11.9 47.8 5.9 52 0 56.3L0 0Z" fill="#64ff7c"></path><path d="M28.1 0C27.2 3.4 26.3 6.8 25.2 10.4C24 14.1 22.6 17.9 19.9 19.9C17.1 21.8 13 21.8 9.5 22.9C5.9 23.9 3 26 0 28.1L0 0Z" fill="#04ff5f"></path></g></svg>