<svg id="visual" viewBox="0 0 450 900" width="450" height="900" xmlns="http://www.w3.org/2000/svg" xmlns:xlink="http://www.w3.org/1999/xlink" version="1.1"><rect x="0" y="0" width="450" height="900" fill="#ffffff"></rect><defs><linearGradient id="grad1_0" x1="0%" y1="100%" x2="100%" y2="0%"><stop offset="30%" stop-color="#3cfa81" stop-opacity="1"></stop><stop offset="70%" stop-color="#3cfa81" stop-opacity="1"></stop></linearGradient></defs><defs><linearGradient id="grad1_1" x1="0%" y1="100%" x2="100%" y2="0%"><stop offset="30%" stop-color="#3cfa81" stop-opacity="1"></stop><stop offset="70%" stop-color="#94feac" stop-opacity="1"></stop></linearGradient></defs><defs><linearGradient id="grad1_2" x1="0%" y1="100%" x2="100%" y2="0%"><stop offset="30%" stop-color="#cdffd5" stop-opacity="1"></stop><stop offset="70%" stop-color="#94feac" stop-opacity="1"></stop></linearGradient></defs><defs><linearGradient id="grad1_3" x1="0%" y1="100%" x2="100%" y2="0%"><stop offset="30%" stop-color="#cdffd5" stop-opacity="1"></stop><stop offset="70%" stop-color="#ffffff" stop-opacity="1"></stop></linearGradient></defs><defs><linearGradient id="grad2_0" x1="0%" y1="100%" x2="100%" y2="0%"><stop offset="30%" stop-color="#3cfa81" stop-opacity="1"></stop><stop offset="70%" stop-color="#3cfa81" stop-opacity="1"></stop></linearGradient></defs><defs><linearGradient id="grad2_1" x1="0%" y1="100%" x2="100%" y2="0%"><stop offset="30%" stop-color="#94feac" stop-opacity="1"></stop><stop offset="70%" stop-color="#3cfa81" stop-opacity="1"></stop></linearGradient></defs><defs><linearGradient id="grad2_2" x1="0%" y1="100%" x2="100%" y2="0%"><stop offset="30%" stop-color="#94feac" stop-opacity="1"></stop><stop offset="70%" stop-color="#cdffd5" stop-opacity="1"></stop></linearGradient></defs><defs><linearGradient id="grad2_3" x1="0%" y1="100%" x2="100%" y2="0%"><stop offset="30%" stop-color="#ffffff" stop-opacity="1"></stop><stop offset="70%" stop-color="#cdffd5" stop-opacity="1"></stop></linearGradient></defs><g transform="translate(450, 900)"><path d="M-180 0C-173.6 -21.6 -167.2 -43.2 -159.8 -66.2C-152.5 -89.2 -144.1 -113.7 -127.3 -127.3C-110.4 -140.9 -85 -143.6 -62.4 -150.6C-39.7 -157.6 -19.9 -168.8 0 -180L0 0Z" fill="#e7ffea"></path><path d="M-135 0C-130.2 -16.2 -125.4 -32.4 -119.9 -49.7C-114.4 -66.9 -108.1 -85.3 -95.5 -95.5C-82.8 -105.7 -63.8 -107.7 -46.8 -112.9C-29.8 -118.2 -14.9 -126.6 0 -135L0 0Z" fill="#b2ffc0"></path><path d="M-90 0C-86.8 -10.8 -83.6 -21.6 -79.9 -33.1C-76.2 -44.6 -72.1 -56.8 -63.6 -63.6C-55.2 -70.4 -42.5 -71.8 -31.2 -75.3C-19.9 -78.8 -9.9 -84.4 0 -90L0 0Z" fill="#70fc96"></path><path d="M-45 0C-43.4 -5.4 -41.8 -10.8 -40 -16.6C-38.1 -22.3 -36 -28.4 -31.8 -31.8C-27.6 -35.2 -21.3 -35.9 -15.6 -37.6C-9.9 -39.4 -5 -42.2 0 -45L0 0Z" fill="#3cfa81"></path></g><g transform="translate(0, 0)"><path d="M180 0C173.2 21.6 166.4 43.2 158.9 65.8C151.4 88.5 143.3 112.2 127.3 127.3C111.2 142.4 87.2 148.8 64.7 156.1C42.1 163.5 21.1 171.7 0 180L0 0Z" fill="#e7ffea"></path><path d="M135 0C129.9 16.2 124.8 32.4 119.2 49.4C113.6 66.4 107.5 84.2 95.5 95.5C83.4 106.8 65.4 111.6 48.5 117.1C31.6 122.6 15.8 128.8 0 135L0 0Z" fill="#b2ffc0"></path><path d="M90 0C86.6 10.8 83.2 21.6 79.5 32.9C75.7 44.2 71.7 56.1 63.6 63.6C55.6 71.2 43.6 74.4 32.3 78.1C21.1 81.7 10.5 85.9 0 90L0 0Z" fill="#70fc96"></path><path d="M45 0C43.3 5.4 41.6 10.8 39.7 16.5C37.9 22.1 35.8 28.1 31.8 31.8C27.8 35.6 21.8 37.2 16.2 39C10.5 40.9 5.3 42.9 0 45L0 0Z" fill="#3cfa81"></path></g></svg>