<svg id="visual" viewBox="0 0 1600 600" width="1600" height="600" xmlns="http://www.w3.org/2000/svg" xmlns:xlink="http://www.w3.org/1999/xlink" version="1.1"><rect x="0" y="0" width="1600" height="600" fill="#FFFFFF" fill-opacity="0"></rect><path d="M0 129L38.2 134.3C76.3 139.7 152.7 150.3 228.8 155.7C305 161 381 161 457.2 153C533.3 145 609.7 129 685.8 130.8C762 132.7 838 152.3 914.2 169C990.3 185.7 1066.7 199.3 1142.8 200.3C1219 201.3 1295 189.7 1371.2 177.5C1447.3 165.3 1523.7 152.7 1561.8 146.3L1600 140L1600 0L1561.8 0C1523.7 0 1447.3 0 1371.2 0C1295 0 1219 0 1142.8 0C1066.7 0 990.3 0 914.2 0C838 0 762 0 685.8 0C609.7 0 533.3 0 457.2 0C381 0 305 0 228.8 0C152.7 0 76.3 0 38.2 0L0 0Z" fill="#0066FF" stroke-linecap="round" stroke-linejoin="miter"></path></svg>