<svg id="visual" viewBox="0 0 1600 600" width="1600" height="600" xmlns="http://www.w3.org/2000/svg" xmlns:xlink="http://www.w3.org/1999/xlink" version="1.1"><path d="M0 231L38.2 219.2C76.3 207.3 152.7 183.7 228.8 171.7C305 159.7 381 159.3 457.2 168.3C533.3 177.3 609.7 195.7 685.8 203.3C762 211 838 208 914.2 203.5C990.3 199 1066.7 193 1142.8 195.7C1219 198.3 1295 209.7 1371.2 209C1447.3 208.3 1523.7 195.7 1561.8 189.3L1600 183L1600 0L1561.8 0C1523.7 0 1447.3 0 1371.2 0C1295 0 1219 0 1142.8 0C1066.7 0 990.3 0 914.2 0C838 0 762 0 685.8 0C609.7 0 533.3 0 457.2 0C381 0 305 0 228.8 0C152.7 0 76.3 0 38.2 0L0 0Z" fill="#ffffff"></path><path d="M0 124L38.2 126.8C76.3 129.7 152.7 135.3 228.8 141.8C305 148.3 381 155.7 457.2 159.7C533.3 163.7 609.7 164.3 685.8 163.8C762 163.3 838 161.7 914.2 154.5C990.3 147.3 1066.7 134.7 1142.8 132.2C1219 129.7 1295 137.3 1371.2 149.2C1447.3 161 1523.7 177 1561.8 185L1600 193L1600 0L1561.8 0C1523.7 0 1447.3 0 1371.2 0C1295 0 1219 0 1142.8 0C1066.7 0 990.3 0 914.2 0C838 0 762 0 685.8 0C609.7 0 533.3 0 457.2 0C381 0 305 0 228.8 0C152.7 0 76.3 0 38.2 0L0 0Z" fill="#d1d8f5"></path><path d="M0 141L38.2 132.7C76.3 124.3 152.7 107.7 228.8 110.8C305 114 381 137 457.2 139.7C533.3 142.3 609.7 124.7 685.8 116.5C762 108.3 838 109.7 914.2 106.8C990.3 104 1066.7 97 1142.8 101.5C1219 106 1295 122 1371.2 127.5C1447.3 133 1523.7 128 1561.8 125.5L1600 123L1600 0L1561.8 0C1523.7 0 1447.3 0 1371.2 0C1295 0 1219 0 1142.8 0C1066.7 0 990.3 0 914.2 0C838 0 762 0 685.8 0C609.7 0 533.3 0 457.2 0C381 0 305 0 228.8 0C152.7 0 76.3 0 38.2 0L0 0Z" fill="#a2b2ea"></path><path d="M0 59L38.2 58.5C76.3 58 152.7 57 228.8 63.3C305 69.7 381 83.3 457.2 92C533.3 100.7 609.7 104.3 685.8 106.5C762 108.7 838 109.3 914.2 109C990.3 108.7 1066.7 107.3 1142.8 99.3C1219 91.3 1295 76.7 1371.2 69.2C1447.3 61.7 1523.7 61.3 1561.8 61.2L1600 61L1600 0L1561.8 0C1523.7 0 1447.3 0 1371.2 0C1295 0 1219 0 1142.8 0C1066.7 0 990.3 0 914.2 0C838 0 762 0 685.8 0C609.7 0 533.3 0 457.2 0C381 0 305 0 228.8 0C152.7 0 76.3 0 38.2 0L0 0Z" fill="#6d8ede"></path><path d="M0 44L38.2 42.5C76.3 41 152.7 38 228.8 36.5C305 35 381 35 457.2 33.5C533.3 32 609.7 29 685.8 33.8C762 38.7 838 51.3 914.2 51.2C990.3 51 1066.7 38 1142.8 36.8C1219 35.7 1295 46.3 1371.2 51.7C1447.3 57 1523.7 57 1561.8 57L1600 57L1600 0L1561.8 0C1523.7 0 1447.3 0 1371.2 0C1295 0 1219 0 1142.8 0C1066.7 0 990.3 0 914.2 0C838 0 762 0 685.8 0C609.7 0 533.3 0 457.2 0C381 0 305 0 228.8 0C152.7 0 76.3 0 38.2 0L0 0Z" fill="#0d6cd2"></path></svg>